<?xml version="1.0" encoding="UTF-8" standalone="no"?>
<!-- Generator: Adobe Illustrator 24.1.2, SVG Export Plug-In . SVG Version: 6.00 Build 0)  -->

<svg
   version="1.1"
   id="Icons"
   x="0px"
   y="0px"
   viewBox="0 0 113.9 96.099995"
   xml:space="preserve"
   sodipodi:docname="auto_spin_active.svg"
   width="113.9"
   height="96.099998"
   inkscape:version="1.1 (c68e22c387, 2021-05-23)"
   xmlns:inkscape="http://www.inkscape.org/namespaces/inkscape"
   xmlns:sodipodi="http://sodipodi.sourceforge.net/DTD/sodipodi-0.dtd"
   xmlns="http://www.w3.org/2000/svg"
   xmlns:svg="http://www.w3.org/2000/svg"><defs
   id="defs89" /><sodipodi:namedview
   id="namedview87"
   pagecolor="#ffffff"
   bordercolor="#666666"
   borderopacity="1.0"
   inkscape:pageshadow="2"
   inkscape:pageopacity="0.0"
   inkscape:pagecheckerboard="0"
   showgrid="false"
   inkscape:zoom="4.9012567"
   inkscape:cx="56.822161"
   inkscape:cy="43.560256"
   inkscape:window-width="1920"
   inkscape:window-height="1027"
   inkscape:window-x="1912"
   inkscape:window-y="-8"
   inkscape:window-maximized="1"
   inkscape:current-layer="Icons" />
<style
   type="text/css"
   id="style50">
	.st0{fill:#5F646D;}
	.st1{fill:url(#SVGID_1_);}
	.st2{fill:#D5DDE9;}
	.st3{fill:url(#SVGID_2_);}
</style>
<g
   id="g84"
   transform="translate(-44.4,-39.9)">
	<path
   class="st0"
   d="M 116.8,84.9 H 105.3 V 73.4 c 0,-0.6 -0.4,-1 -1,-1 h -6 c -0.6,0 -1,0.4 -1,1 V 84.9 H 85.9 c -0.6,0 -1,0.4 -1,1 v 6 c 0,0.6 0.4,1 1,1 h 11.5 v 11.5 c 0,0.6 0.4,1 1,1 h 6 c 0.6,0 1,-0.4 1,-1 V 92.9 h 11.5 c 0.6,0 1,-0.4 1,-1 v -6 c -0.1,-0.6 -0.5,-1 -1.1,-1 z"
   id="path52" />
	<g
   id="g63">
		
			<linearGradient
   id="SVGID_1_"
   gradientUnits="userSpaceOnUse"
   x1="110.6629"
   y1="119.4787"
   x2="80.875702"
   y2="149.7766"
   gradientTransform="translate(8.3714,-39.9315)">
			<stop
   offset="0"
   style="stop-color:#F9FAFC;stop-opacity:0"
   id="stop54" />
			<stop
   offset="0.2039"
   style="stop-color:#E8E8EB;stop-opacity:4.748603e-02"
   id="stop56" />
			<stop
   offset="1"
   style="stop-color:#D5DDE9"
   id="stop58" />
		</linearGradient>
		<path
   class="st1"
   d="M 101.2,122.5 C 82.1,122.5 66.6,107 66.6,87.9 H 53.1 c 0,26.6 21.5,48.1 48.1,48.1 26.6,0 48.1,-21.5 48.1,-48.1 h -13.5 c 0.1,19.1 -15.5,34.6 -34.6,34.6 z"
   id="path61"
   style="fill:url(#SVGID_1_)" />
	</g>
	<g
   id="g67">
		<polygon
   class="st2"
   points="158.3,77.6 124.7,77.6 141.5,97.4 "
   id="polygon65" />
	</g>
	<g
   id="g78">
		
			<linearGradient
   id="SVGID_2_"
   gradientUnits="userSpaceOnUse"
   x1="-370.0022"
   y1="598.07483"
   x2="-399.78949"
   y2="628.37262"
   gradientTransform="rotate(180,-143.16515,347.1743)">
			<stop
   offset="0"
   style="stop-color:#F9FAFC;stop-opacity:0"
   id="stop69" />
			<stop
   offset="0.2039"
   style="stop-color:#E8E8EB;stop-opacity:4.748603e-02"
   id="stop71" />
			<stop
   offset="1"
   style="stop-color:#D5DDE9"
   id="stop73" />
		</linearGradient>
		<path
   class="st3"
   d="m 101.5,53.4 c 19.1,0 34.6,15.5 34.6,34.6 h 13.5 C 149.6,61.4 128.1,39.9 101.5,39.9 74.9,39.9 53.4,61.4 53.4,88 h 13.5 c 0,-19.1 15.5,-34.6 34.6,-34.6 z"
   id="path76"
   style="fill:url(#SVGID_2_)" />
	</g>
	<g
   id="g82">
		<polygon
   class="st2"
   points="44.4,98.2 78,98.2 61.2,78.4 "
   id="polygon80" />
	</g>
</g>
</svg>
