<?xml version="1.0" encoding="utf-8"?>
<!-- Generator: Adobe Illustrator 24.3.0, SVG Export Plug-In . SVG Version: 6.00 Build 0)  -->
<svg version="1.1" id="Icons" xmlns="http://www.w3.org/2000/svg" xmlns:xlink="http://www.w3.org/1999/xlink" x="0px" y="0px"
	 viewBox="0 0 42 36" style="enable-background:new 0 0 42 36;" xml:space="preserve">
<style type="text/css">
	.st0{fill:#898E97;}
	.st1{opacity:0.2;}
	.st2{opacity:0.3;fill:#FFFFFF;enable-background:new    ;}
	.st3{opacity:0.1;fill:#FFFFFF;enable-background:new    ;}
</style>
<path class="st0" d="M13,25.7v-3.1c-7.2-0.2-13-2.4-13-5.1v3.4c0,2.7,5.8,5,13,5.1C13,25.9,13,25.8,13,25.7z"/>
<g class="st1">
	<path class="st2" d="M1.8,23.4c0.4,0.3,0.9,0.5,1.3,0.7v-3.4c-0.5-0.2-0.9-0.4-1.3-0.7V23.4z"/>
	<path class="st2" d="M3.8,24.4c0.4,0.2,0.9,0.3,1.3,0.5v-3.4c-0.5-0.1-0.9-0.3-1.3-0.5V24.4z"/>
	<path class="st2" d="M5.7,25c0.4,0.1,0.9,0.2,1.3,0.3V22c-0.5-0.1-0.9-0.2-1.3-0.3V25z"/>
</g>
<path class="st0" d="M13,20.6c0.1-1.3,0.7-2.5,1.8-3.3h-1C6.2,17.3,0,15,0,12.2v3.3C0,18.3,5.8,20.5,13,20.6L13,20.6z"/>
<g class="st1">
	<path class="st2" d="M1.8,18.1c0.4,0.3,0.9,0.5,1.3,0.7v-3.4c-0.5-0.2-0.9-0.4-1.3-0.7V18.1z"/>
	<path class="st2" d="M3.8,19.1c0.4,0.2,0.8,0.3,1.3,0.5v-3.4c-0.5-0.1-0.9-0.3-1.3-0.5V19.1z"/>
	<path class="st2" d="M5.7,19.7C6.1,19.8,6.6,19.9,7,20v-3.4c-0.5-0.1-0.9-0.2-1.3-0.3V19.7z"/>
</g>
<path class="st0" d="M42,27.6c0,2.8-6.2,5.1-13.8,5.1s-13.7-2.3-13.8-5.1V31c0,2.8,6.2,5.1,13.8,5.1S42,33.8,42,30.9V27.6z"/>
<path class="st3" d="M16.8,33.8c0.4,0.2,0.9,0.4,1.3,0.6V31c-0.5-0.2-0.9-0.4-1.3-0.6V33.8z"/>
<path class="st3" d="M18.8,34.6c0.4,0.1,0.9,0.3,1.3,0.4v-3.4c-0.4-0.1-0.9-0.3-1.3-0.4V34.6z"/>
<path class="st3" d="M20.7,35.2c0.4,0.1,0.9,0.2,1.3,0.3v-3.4c-0.5-0.1-0.9-0.2-1.3-0.3V35.2z"/>
<path class="st0" d="M42,22.4c0,2.8-6.2,5.1-13.8,5.1s-13.7-2.3-13.8-5.1v3.3c0,2.8,6.2,5.1,13.8,5.1S42,28.5,42,25.7V22.4z"/>
<path class="st3" d="M16.8,28.6c0.4,0.2,0.9,0.4,1.3,0.6v-3.4c-0.5-0.2-0.9-0.4-1.3-0.6V28.6z"/>
<path class="st3" d="M18.8,29.4c0.4,0.2,0.9,0.3,1.3,0.4v-3.4c-0.5-0.1-0.9-0.3-1.3-0.4V29.4z"/>
<path class="st3" d="M20.7,30c0.4,0.1,0.9,0.2,1.3,0.3v-3.4c-0.5-0.1-0.9-0.2-1.3-0.3V30z"/>
<ellipse class="st0" cx="28.2" cy="20.6" rx="13.8" ry="5.1"/>
<path class="st0" d="M27.5,7c0,2.8-6.2,5.1-13.8,5.1S0,9.8,0,7v3.4c0,2.8,6.2,5.1,13.8,5.1s13.8-2.3,13.8-5.1V7H27.5z"/>
<g class="st1">
	<path class="st2" d="M1.8,12.9c0.4,0.3,0.9,0.5,1.3,0.7v-3.4C2.7,10,2.3,9.8,1.8,9.5V12.9z"/>
	<path class="st2" d="M3.8,13.9c0.4,0.2,0.9,0.3,1.3,0.5V11c-0.5-0.1-0.9-0.3-1.3-0.5V13.9z"/>
	<path class="st2" d="M5.7,14.5c0.4,0.1,0.9,0.2,1.3,0.3v-3.4c-0.5-0.1-0.9-0.2-1.3-0.3V14.5z"/>
</g>
<ellipse class="st0" cx="13.8" cy="5.2" rx="13.8" ry="5.1"/>
</svg>
