<?xml version="1.0" encoding="utf-8"?>
<!-- Generator: Adobe Illustrator 24.3.0, SVG Export Plug-In . SVG Version: 6.00 Build 0)  -->
<svg version="1.1" id="Icons" xmlns="http://www.w3.org/2000/svg" xmlns:xlink="http://www.w3.org/1999/xlink" x="0px" y="0px"
	 viewBox="0 0 78.1 80.7" style="enable-background:new 0 0 78.1 80.7;" xml:space="preserve">
<style type="text/css">
	.st0{fill:#FFFFFF;}
</style>
<g>
	<path class="st0" d="M65.9,74.5L5.4,14c-2.2-2.1-2.2-5.6,0-7.8l0,0c2.2-2.2,5.6-2.2,7.8,0l60.5,60.5c2.2,2.2,2.2,5.6,0,7.8l0,0
		C71.6,76.6,68.1,76.6,65.9,74.5z"/>
</g>
<g>
	<path class="st0" d="M5.4,66.7L65.9,6.2c2.2-2.2,5.6-2.2,7.8,0l0,0c2.2,2.2,2.2,5.6,0,7.8L13.2,74.5c-2.2,2.2-5.6,2.2-7.8,0l0,0
		C3.3,72.3,3.3,68.8,5.4,66.7z"/>
</g>
</svg>
