<?xml version="1.0" encoding="utf-8"?>
<!-- Generator: Adobe Illustrator 24.3.0, SVG Export Plug-In . SVG Version: 6.00 Build 0)  -->
<svg version="1.1" id="Layer_1" xmlns="http://www.w3.org/2000/svg" xmlns:xlink="http://www.w3.org/1999/xlink" x="0px" y="0px"
	 viewBox="0 0 34.2 93.4" style="enable-background:new 0 0 34.2 93.4;" xml:space="preserve">
<style type="text/css">
	.st0{display:none;}
	.st1{display:inline;fill:none;stroke:#F3E600;stroke-width:1.0769;stroke-miterlimit:10;}
	.st2{display:inline;}
	.st3{fill:#2F3346;}
	.st4{fill:#898E97;}
</style>
<g id="Icons" class="st0">
	<path class="st1" d="M55.5,50.6"/>
	<g class="st2">
		<path class="st3" d="M26.9,80.4c-2.3,0-4.4-0.8-6-2.2c-0.9-0.7-1.5-1.8-1.5-3.1l0,0c0-1.3,0.2-2.5,0.5-3.7l9.3-44.1H10.6L1.8,68.8
			c-0.6,2.8-1,5.6-1,8.4c0,0.5,0,0.9,0,1.4l0,0c0,7.8,6.3,14.1,14.1,14.1c7.3,0,13.3-5.5,14-12.7C28.3,80.3,27.6,80.4,26.9,80.4z"/>
	</g>
	<g class="st2">
		<circle class="st3" cx="23.8" cy="9.8" r="9.3"/>
	</g>
	<path class="st1" d="M135,50.6"/>
</g>
<g id="Layer_2_1_" class="st0">
	<g class="st2">
		<path class="st4" d="M26.9,80.3c-2.3,0-4.4-0.8-6-2.2c-0.9-0.7-1.5-1.8-1.5-3.1l0,0c0-1.3,0.2-2.5,0.5-3.7l9.3-44.1H10.6L1.8,68.9
			c-0.6,2.8-1,5.6-1,8.4c0,0.5,0,0.9,0,1.4l0,0c0,7.8,6.3,14.1,14.1,14.1c7.3,0,13.3-5.5,14-12.7C28.2,80.2,27.6,80.3,26.9,80.3z"/>
	</g>
	<g class="st2">
		<circle class="st4" cx="23.7" cy="9.7" r="9.3"/>
	</g>
</g>
<g id="Layer_3">
	<g>
		<path class="st4" d="M26.9,80.4c-2.3,0-4.4-0.8-6-2.2c-0.9-0.7-1.5-1.8-1.5-3.1l0,0c0-1.3,0.2-2.5,0.5-3.7l9.3-44.1H10.6L1.8,69
			c-0.6,2.8-1,5.6-1,8.4c0,0.5,0,0.9,0,1.4l0,0c0,7.8,6.3,14.1,14.1,14.1c7.3,0,13.3-5.5,14-12.7C28.2,80.3,27.6,80.4,26.9,80.4z"/>
	</g>
	<g>
		<circle class="st4" cx="23.7" cy="9.8" r="9.3"/>
	</g>
</g>
</svg>
