<?xml version="1.0" encoding="utf-8"?>
<!-- Generator: Adobe Illustrator 24.3.0, SVG Export Plug-In . SVG Version: 6.00 Build 0)  -->
<svg version="1.1" id="Icons" xmlns="http://www.w3.org/2000/svg" xmlns:xlink="http://www.w3.org/1999/xlink" x="0px" y="0px"
	 viewBox="0 0 133.6 102.2" style="enable-background:new 0 0 133.6 102.2;" xml:space="preserve">
<style type="text/css">
	.st0{fill:#FFFFFF;}
	.st1{display:none;fill:#D5DDE9;}
	.st2{display:none;}
	.st3{display:inline;}
	.st4{fill:#60656E;}
</style>
<path class="st0" d="M75,4.2c-1.8-1.6-4.3-1.6-6.1-0.3L33.8,30.3H7.2c-2.5,0-4.5,2-4.5,4.5v32.1c0,2.6,2.1,4.8,4.8,4.8h26.3L68.9,98
	c0.8,0.6,1.8,1,2.9,1c0.8,0,1.6-0.2,2.3-0.6c1.6-0.9,2.5-2.6,2.5-4.4V7.9C76.6,6.5,76,5.1,75,4.2z M39.1,61.8
	c-1.1-0.8-2.4-1.3-3.8-1.3H13.8V41.3h22.1l29.6-21.1v61.4L39.1,61.8z"/>
<g>
	<path class="st0" d="M88.6,67.1c-1.1,0-2.2-0.4-3-1.2c-1.6-1.7-1.6-4.3,0-6l23.3-23.3c1.7-1.6,4.3-1.6,6,0c1.6,1.7,1.6,4.3,0,6
		L91.5,65.8C90.7,66.7,89.6,67.1,88.6,67.1z"/>
</g>
<g>
	<path class="st0" d="M111.8,67.1c-1.1,0-2.2-0.4-3-1.2L85.6,42.6c-1.6-1.7-1.6-4.3,0-6c1.7-1.6,4.3-1.6,6,0l23.3,23.3
		c1.6,1.7,1.6,4.3,0,6C114,66.7,112.9,67.1,111.8,67.1z"/>
</g>
<path class="st1" d="M75,113.2c-1.8-1.6-4.3-1.6-6.1-0.3l-35.2,26.4H7.2c-2.5,0-4.5,2-4.5,4.5v32.1c0,2.6,2.1,4.8,4.8,4.8h26.3
	L68.9,207c0.8,0.6,1.8,1,2.9,1c0.8,0,1.6-0.2,2.3-0.6c1.6-0.9,2.5-2.6,2.5-4.4v-86.1C76.6,115.5,76,114.1,75,113.2z M39.1,170.8
	c-1.1-0.8-2.4-1.3-3.8-1.3H13.8v-19.2h22.1l29.6-21.1v61.4L39.1,170.8z"/>
<g class="st2">
	<g class="st3">
		<path class="st4" d="M102.2,204.1c-1.6,0-3.1-0.9-3.8-2.3c-1.1-2.1-0.2-4.7,1.9-5.8c13.5-6.9,21.9-20.6,21.9-35.7
			c0-15.1-8.4-28.8-21.9-35.7c-2.1-1.1-2.9-3.7-1.9-5.8c1.1-2.1,3.6-2.9,5.8-1.9c16.4,8.4,26.5,25,26.5,43.3
			c0,18.4-10.2,35-26.5,43.3C103.5,203.9,102.8,204.1,102.2,204.1z"/>
	</g>
	<g class="st3">
		<path class="st4" d="M93.5,184.4c-1.5,0-2.9-0.8-3.7-2.1c-1.2-2-0.5-4.7,1.6-5.8c5.7-3.3,9.3-9.5,9.3-16.1
			c0-7.1-4.2-13.7-10.6-16.8c-2.1-1-3-3.6-2-5.7c1-2.1,3.6-3,5.7-2c9.4,4.5,15.5,14.1,15.5,24.5c0,9.7-5.2,18.7-13.6,23.5
			C95,184.2,94.2,184.4,93.5,184.4z"/>
	</g>
</g>
</svg>
