<?xml version="1.0" encoding="utf-8"?>
<!-- Generator: Adobe Illustrator 24.3.0, SVG Export Plug-In . SVG Version: 6.00 Build 0)  -->
<svg version="1.1" id="Layer_1" xmlns="http://www.w3.org/2000/svg" xmlns:xlink="http://www.w3.org/1999/xlink" x="0px" y="0px"
	 viewBox="0 0 33.5 26.4" style="enable-background:new 0 0 33.5 26.4;" xml:space="preserve">
<style type="text/css">
	.st0{fill:#898E97;}
</style>
<g id="Group_2553" transform="translate(-10.625 -14.611)">
	<g id="Group_2495" transform="translate(10.625 14.611)">
		<g id="Group_1319" transform="translate(0 0)">
			<path id="Path_160" class="st0" d="M18.6,26.4c-0.3,0-0.5-0.1-0.8-0.3l-9.5-7.3H1.3c-0.7,0-1.3-0.6-1.3-1.3V8.8
				c0-0.7,0.5-1.2,1.2-1.2c0,0,0,0,0,0h7.2l9.5-7.3c0.5-0.4,1.2-0.3,1.6,0.1c0.3,0.3,0.4,0.6,0.4,1V25c0,0.5-0.2,1-0.7,1.2
				C19,26.3,18.8,26.4,18.6,26.4z M8.8,10.1H2.6v6.1h6.2c0.3,0,0.5,0.1,0.8,0.3l7.8,5.9V3.9L8.8,10.1z"/>
		</g>
	</g>
	<g id="Group_2496" transform="translate(33.895 18.287)">
		<g id="Group_2493" transform="translate(0 3.668)">
			<path id="Path_2128" class="st0" d="M1.3,11.4c-0.7,0-1.2-0.5-1.2-1.2c0-0.3,0.1-0.6,0.3-0.8c2-2,1.9-5.3-0.1-7.3
				c-0.5-0.4-0.6-1.2-0.1-1.7c0.4-0.5,1.2-0.6,1.7-0.1C2,0.3,2,0.3,2,0.4C5,3.3,5,8,2.2,11C1.9,11.2,1.6,11.4,1.3,11.4z"/>
		</g>
		<g id="Group_2494" transform="translate(4.66 0)">
			<path id="Path_2129" class="st0" d="M1.3,18.6c-0.6,0-1.2-0.5-1.2-1.2c0-0.3,0.1-0.6,0.3-0.8C4.2,12.4,4.1,6.1,0.3,1.9
				c-0.4-0.5-0.4-1.2,0.1-1.6C0.9-0.1,1.6-0.1,2,0.4c4.6,5,4.7,12.7,0.2,17.8C2,18.4,1.7,18.6,1.3,18.6z"/>
		</g>
	</g>
</g>
</svg>
