<svg xmlns="http://www.w3.org/2000/svg" width="25" height="25" viewBox="0 0 25 25">
  <g id="Group_2560" data-name="Group 2560" transform="translate(-100 -268)">
    <rect id="Rectangle_144" data-name="Rectangle 144" width="25" height="25" rx="12.5" transform="translate(100 268)" fill="#569134"/>
    <path id="Path_2095" data-name="Path 2095" d="M1183.166,829.425a.971.971,0,0,0-1.373,0l-7.275,7.275-2.133-2.133a.971.971,0,0,0-1.373,1.373l2.819,2.819a.967.967,0,0,0,.5.266.981.981,0,0,0,.371,0,.966.966,0,0,0,.5-.267h0l7.96-7.96A.971.971,0,0,0,1183.166,829.425Z" transform="translate(-1064.729 -553.645)" fill="#fff"/>
  </g>
</svg>
